<svg width="1024" height="1007" viewBox="0 0 1024 1007" fill="none" xmlns="http://www.w3.org/2000/svg">
<path fill-rule="evenodd" clip-rule="evenodd" d="M523.432 0.138304C535.193 0.414911 553.596 1.52134 564.25 2.62777C574.904 3.7342 592.615 6.22366 603.684 8.15991C614.753 10.0962 629.973 13.2771 637.583 15.2134C645.193 17.1497 659.168 21.2988 668.715 24.3414C678.262 27.3841 694.727 33.3312 705.381 37.4803C716.036 41.6294 734.991 50.3425 747.583 56.7045C760.174 63.0665 779.545 73.9924 790.891 81.0459C802.098 88.0994 819.532 100.408 829.633 108.43C839.595 116.452 857.305 132.357 868.651 143.697C880.136 155.177 893.695 169.699 898.953 176.199C904.073 182.699 912.651 194.455 917.909 202.477C923.305 210.498 932.576 226.956 938.525 239.127C944.613 251.298 951.67 267.756 954.299 275.777C956.928 283.799 960.94 299.012 963.154 309.662C965.506 320.311 968.135 334.971 969.242 342.163C970.349 350.185 971.041 367.611 970.903 387.112C970.903 412.975 970.211 422.379 967.859 437.593C966.198 447.827 962.878 463.455 960.664 472.169C958.45 480.882 953.745 496.51 950.286 506.745C946.827 516.979 939.356 534.82 933.683 546.161C928.01 557.64 919.154 573.407 913.897 581.428C908.777 589.45 898.815 602.866 891.897 611.164C885.117 619.462 873.217 632.324 865.746 639.516C858.136 646.708 846.651 656.804 840.287 661.783C833.784 666.762 823.268 674.369 816.765 678.518C810.262 682.667 799.746 688.89 793.243 692.348C786.74 695.806 774.564 701.476 766.262 705.072C757.96 708.668 744.123 713.647 735.822 716.136C727.52 718.764 714.375 722.083 706.765 723.605C699.155 725.126 684.765 727.477 674.941 728.722C663.734 730.243 647.822 731.073 632.74 731.073C619.457 730.935 601.608 730.243 593.306 729.552C585.004 728.722 570.338 726.509 560.791 724.711C551.244 722.775 535.747 719.041 526.2 716.275C516.652 713.509 502.124 708.53 493.684 705.21C485.244 701.753 478.326 699.125 478.187 699.401C477.91 699.54 485.105 703.136 494.099 707.423C502.954 711.711 519.281 718.487 530.351 722.36C541.42 726.371 555.395 730.796 561.483 732.318C567.571 733.977 579.747 736.605 588.464 738.403C597.181 740.201 610.602 742.414 618.212 743.382C625.822 744.35 643.533 745.042 657.646 745.042C671.759 745.18 689.47 744.35 697.08 743.382C704.69 742.552 718.664 740.201 728.212 738.403C737.759 736.467 753.671 732.456 763.494 729.275C773.318 726.094 786.463 721.392 792.551 718.626C798.639 715.998 809.847 710.328 817.457 706.178C825.067 702.029 835.029 696.082 839.595 693.04C844.161 689.997 853.846 682.667 861.041 676.996C868.236 671.188 879.997 660.538 887.331 653.346C894.526 646.155 904.764 634.952 909.884 628.452C915.003 621.951 922.89 611.44 927.318 604.94C931.746 598.44 938.94 586.961 943.091 579.354C947.381 571.747 953.884 558.332 957.62 549.619C961.355 540.906 967.028 525.969 970.072 516.426C973.255 506.883 976.852 494.85 978.098 489.457C979.205 484.063 981.418 473.552 982.802 465.945C984.186 458.338 986.123 443.678 986.953 433.444C988.06 421.964 988.475 405.783 987.921 391.261C987.506 378.26 985.846 359.589 984.186 349.77C982.664 339.95 979.896 325.843 978.098 318.652C976.161 311.46 972.286 298.598 969.381 290.161C966.475 281.725 964.399 274.948 964.815 275.086C965.23 275.224 970.211 285.044 976.161 296.661C981.972 308.417 989.443 325.152 992.903 333.865C996.362 342.578 1001.48 357.238 1004.25 366.366C1007.02 375.494 1011.03 391.952 1013.24 403.017C1015.46 414.081 1018.22 430.401 1019.47 439.391C1020.58 448.242 1022.24 466.36 1023.07 479.499C1024.31 497.34 1024.31 510.617 1023.07 532.331C1022.24 548.236 1020.58 569.534 1019.33 579.354C1018.22 589.174 1015.04 607.568 1012.27 620.154C1009.64 632.739 1005.63 649.197 1003.28 656.804C1001.07 664.411 996.638 677.826 993.594 686.539C990.55 695.252 985.154 709.359 981.557 717.658C977.959 725.956 970.488 741.584 964.815 752.234C959.142 762.883 949.041 779.618 942.538 789.576C936.035 799.395 924.551 815.3 916.802 824.843C909.192 834.386 895.494 849.599 886.5 858.589C877.368 867.717 864.777 879.473 858.274 884.867C851.771 890.26 840.01 899.527 831.985 905.336C823.96 911.144 809.985 920.687 800.853 926.496C791.721 932.305 772.765 942.816 758.652 949.731C744.539 956.785 731.117 963.285 728.903 964.115C726.69 965.083 718.526 968.264 710.916 971.306C703.306 974.211 688.916 979.19 679.092 982.232C669.268 985.413 653.356 989.701 643.809 992.052C634.262 994.265 618.765 997.446 609.218 998.967C599.671 1000.63 582.514 1002.84 571.168 1003.95C559.684 1004.91 540.174 1006.3 527.583 1006.71C514.992 1007.27 493.546 1006.99 479.848 1006.16C466.149 1005.33 447.47 1003.81 438.338 1002.56C429.206 1001.46 417.03 999.52 411.357 998.276C405.684 997.031 391.294 993.712 379.533 990.807C367.772 987.903 351.307 982.924 342.867 979.881C334.427 976.977 323.357 972.828 317.961 970.753C312.565 968.817 297.76 961.902 284.754 955.54C271.748 949.178 253.068 939.082 243.245 933.135C233.421 927.188 219.031 917.921 211.421 912.666C203.811 907.41 188.591 895.793 177.521 886.941C166.452 878.09 149.572 862.738 139.886 853.057C130.339 843.237 119.132 831.482 115.258 826.917C111.245 822.353 103.497 812.672 98.1003 805.48C92.5658 798.289 84.679 787.363 80.6664 781.277C76.5155 775.192 68.9054 763.021 63.786 754.308C58.5281 745.595 50.503 730.796 46.0753 721.53C41.5093 712.125 35.4213 698.433 32.3773 691.103C29.4716 683.635 24.9056 670.634 22.1383 662.336C19.5094 654.038 16.0503 642.42 14.3899 636.75C12.8679 631.079 9.96223 618.909 8.02513 609.781C6.2264 600.653 3.59747 584.748 2.35219 574.513C0.830186 561.789 0 545.055 0 521.958C0 498.861 0.691822 482.265 2.21383 470.094C3.45911 460.274 5.8113 444.923 7.33331 436.21C8.99368 427.497 12.3144 411.868 14.9433 401.634C17.5723 391.399 21.3081 377.984 23.2452 371.898C25.1823 365.813 30.5785 351.153 35.0062 339.397C39.4338 327.641 45.3835 311.736 48.2892 304.13C51.0564 296.523 57.2828 281.448 62.1256 270.66C66.9683 259.734 74.8551 243.553 79.6979 234.701C84.5406 225.712 92.7041 211.881 97.962 203.86C103.081 195.838 112.352 182.837 118.44 174.816C124.528 166.794 141.132 148.815 155.245 134.708C172.264 117.835 186.654 104.972 197.584 96.8125C206.716 90.174 220.968 80.3544 229.408 74.9606C237.848 69.705 255.836 59.8855 269.534 53.1086C283.232 46.3317 302.88 37.7569 313.119 33.8844C323.357 30.1502 339.961 24.7564 349.785 21.9903C359.609 19.3625 378.703 14.9368 391.986 12.309C405.269 9.68125 425.885 6.22366 437.646 4.56402C449.407 3.04268 468.778 1.24473 480.539 0.553215C492.3 0 511.671 -0.138304 523.432 0.138304ZM534.501 23.235C542.527 25.4479 555.533 29.4587 563.558 32.3631C571.583 35.1291 585.281 40.9379 593.998 45.087C602.715 49.2361 616.413 56.5662 624.438 61.4068C632.463 66.1091 644.501 74.2691 651.419 79.3863C658.338 84.5035 669.407 93.7699 676.325 99.7169C683.243 105.802 694.451 117.281 701.507 125.165C708.564 133.048 718.111 144.527 722.815 150.613C727.381 156.698 735.13 168.177 739.973 176.199C744.677 184.22 751.18 195.976 754.501 202.477C757.683 208.977 763.079 220.733 766.262 228.754C769.444 236.776 773.733 248.532 775.671 255.032C777.608 261.532 780.513 272.043 782.035 278.544C783.557 285.044 785.91 297.491 787.293 306.204C789.092 318.237 789.784 329.854 789.645 353.919C789.645 377.707 789.092 389.601 787.155 400.942C785.771 409.379 783.419 421.411 782.035 427.911C780.513 434.412 777.608 444.923 775.671 451.423C773.733 457.923 768.891 471.339 764.878 481.158C760.866 490.978 754.086 506.33 749.658 515.043C745.23 523.756 737.62 537.448 732.639 545.47C727.796 553.491 720.878 564.002 717.419 568.981C713.822 573.96 705.105 585.439 697.771 594.567C690.576 603.557 684.073 611.994 683.382 613.238C682.69 614.345 683.935 613.653 686.149 611.717C688.363 609.781 692.79 605.77 695.834 602.727C699.017 599.823 706.073 592.354 711.746 586.269C717.281 580.184 726.828 568.981 732.916 561.374C739.004 553.768 748.413 540.629 753.947 532.331C759.482 524.032 767.784 509.926 772.488 501.212C777.193 492.499 784.249 477.839 788.262 468.711C792.413 459.583 797.67 445.891 800.161 438.284C802.513 430.678 805.834 419.198 807.356 412.698C808.878 406.198 810.954 395.687 812.06 389.186C813.167 382.686 814.551 367.473 814.966 355.302C815.519 341.748 815.104 326.12 814.136 315.194C813.167 305.374 810.953 289.746 809.016 280.618C807.218 271.49 803.759 257.798 801.406 250.191C799.054 242.585 794.626 230.276 791.721 222.945C788.815 215.477 783.419 203.583 779.96 196.668C776.362 189.614 770.274 178.55 766.262 172.05C762.249 165.549 754.362 154.347 748.828 147.155C743.293 139.963 731.532 126.824 722.677 118.111C713.96 109.26 700.262 96.9508 692.237 90.5889C684.212 84.2269 673.419 76.067 668.023 72.4711C662.627 68.8752 651.834 62.3749 643.809 57.9492C635.784 53.5235 623.331 47.2998 616.136 43.9806C608.941 40.7996 596.489 35.9589 588.464 33.0546C580.438 30.2885 567.986 26.5543 560.791 24.7564C553.596 22.8201 542.665 20.4689 536.577 19.2242C530.489 18.1178 518.036 16.1815 508.904 15.0751C499.772 13.9687 491.747 13.0005 490.917 13.1388C490.087 13.2771 496.313 14.6602 504.753 16.4581C513.055 18.1178 526.476 21.1605 534.501 23.235ZM328.339 92.6634C317.269 94.5997 301.496 98.3339 293.056 100.823C284.615 103.451 272.578 107.462 266.075 109.813C259.572 112.164 244.351 118.941 232.175 125.026C219.999 130.974 202.565 140.793 193.433 146.878C184.301 152.826 170.327 162.922 162.301 169.284C154.276 175.646 139.61 188.923 129.647 198.881C119.685 208.838 105.71 224.467 98.5154 233.595C91.3205 242.723 82.6035 254.479 79.1444 259.873C75.5469 265.266 70.7042 273.288 68.352 277.852C65.8614 282.416 64.7545 285.044 65.7231 283.522C66.6916 282.139 71.5344 274.948 76.2388 267.618C81.0815 260.287 89.7985 248.393 95.6098 241.202C101.559 234.01 114.012 220.318 123.559 210.775C133.107 201.232 146.805 188.784 154 182.976C161.194 177.167 171.433 169.422 176.83 165.688C182.226 161.954 191.22 156.007 196.892 152.549C202.565 149.091 210.729 144.389 214.88 142.038C219.031 139.687 230.238 134.431 239.785 130.282C249.333 125.995 264.829 120.048 274.377 117.005C283.924 113.962 298.867 109.813 307.584 107.877C316.301 105.941 331.244 103.451 340.791 102.206C351.445 100.962 369.018 100.132 386.452 100.132C402.087 100.132 422.011 101.1 430.728 102.206C439.445 103.175 452.866 105.387 460.477 107.047C468.087 108.707 482.753 112.856 492.992 116.175C503.231 119.633 520.388 126.686 531.042 131.942C541.696 137.059 558.162 146.602 567.709 152.964C577.256 159.187 591.646 169.837 599.533 176.337C607.558 182.976 620.979 195.423 629.281 203.998C637.721 212.711 648.652 225.158 653.495 231.797C658.476 238.435 666.501 250.191 671.482 258.075C676.325 265.958 683.658 278.82 687.671 286.842C691.822 294.863 696.526 304.96 698.187 309.247C699.847 313.673 701.369 317.13 701.507 316.854C701.784 316.715 700.124 310.077 697.91 302.055C695.696 294.034 692.375 283.522 690.438 278.544C688.639 273.565 684.212 263.607 680.753 256.415C677.294 249.223 669.96 236.499 664.564 228.063C659.029 219.626 649.759 206.902 643.948 199.71C638.136 192.519 628.451 181.731 622.363 175.646C616.275 169.699 605.759 160.294 598.841 154.762C591.923 149.23 580.438 140.931 573.243 136.229C566.049 131.527 551.659 123.367 541.42 118.25C531.181 113.132 515.822 106.77 507.52 103.866C499.08 101.1 485.52 97.3658 477.08 95.4295C468.64 93.4933 455.357 91.0038 447.332 89.8974C439.307 88.6526 420.074 87.4079 404.439 87.1313C388.804 86.7164 369.848 86.993 362.238 87.8228C354.628 88.5143 339.408 90.7272 328.339 92.6634ZM324.879 182.561C317.269 183.806 303.571 186.848 294.439 189.338C285.307 191.827 271.609 196.253 263.999 199.019C256.389 201.785 241.169 208.562 230.1 213.956C219.031 219.35 201.043 229.861 189.974 237.191C178.905 244.521 163.132 256.415 154.691 263.607C146.251 270.799 132.968 283.522 124.943 291.821C116.918 300.119 106.956 311.321 102.666 316.577C98.377 321.971 90.767 331.929 85.9243 338.706C80.9431 345.482 73.0564 357.653 68.2136 365.675C63.3709 373.696 56.1759 386.974 52.3017 395.41C48.2892 403.847 42.8929 416.571 40.1257 423.762C37.4967 430.954 32.9307 444.37 30.1634 453.498C27.3961 462.626 23.6603 477.839 21.7232 487.382C19.7861 496.925 17.2955 511.862 16.1886 520.575C15.0817 529.288 13.9748 546.161 13.5597 557.917L13.0062 579.354C16.0503 554.736 18.8176 538.278 21.0314 526.799C23.3836 515.458 27.3961 498.308 30.1634 488.765C32.9307 479.222 37.3584 465.253 40.1257 457.647C42.7546 450.04 48.981 435.103 53.8237 424.454C58.6665 413.804 66.9683 397.9 72.0878 389.186C77.3457 380.473 85.6475 367.611 90.4903 360.558C95.333 353.642 104.465 341.887 110.553 334.28C116.78 326.811 129.232 313.534 138.226 304.821C147.358 295.97 160.641 284.214 167.836 278.682C175.031 273.15 185.27 265.543 190.666 261.947C196.062 258.351 205.609 252.266 212.113 248.532C218.616 244.659 228.578 239.127 234.251 235.946C239.924 232.903 250.301 228.063 257.081 225.297C263.861 222.392 277.697 217.413 287.521 213.956C297.345 210.636 312.288 206.487 320.729 204.551C329.169 202.753 343.42 200.125 352.552 198.742C364.175 197.083 377.32 196.391 396.137 196.529C412.602 196.529 429.345 197.359 439.03 198.742C447.747 199.987 461.722 202.477 470.162 204.274C478.602 206.211 493.131 210.36 502.678 213.541C512.225 216.722 526.891 222.531 535.193 226.541C543.495 230.552 555.948 237.052 562.866 241.202C569.784 245.212 580.854 252.819 587.772 257.798C594.69 262.915 604.929 271.213 610.602 276.469C616.275 281.725 624.3 289.47 628.451 293.619C632.463 297.906 634.954 300.119 633.847 298.598C632.74 297.076 626.929 290.023 620.841 282.831C614.891 275.639 603.96 264.437 596.627 257.936C589.294 251.436 576.288 240.925 567.571 234.84C558.854 228.616 545.571 220.179 537.961 216.03C530.351 211.881 518.59 205.934 511.671 202.891C504.892 199.849 494.237 195.7 488.149 193.763C482.061 191.827 473.621 189.338 469.47 188.093C465.319 186.987 454.665 184.774 445.948 183.252C437.231 181.731 423.257 179.795 414.816 178.965C406.376 178.273 390.879 177.72 380.225 177.72C369.571 177.858 355.873 178.412 349.785 179.103C343.697 179.795 332.49 181.316 324.879 182.561ZM313.119 301.502C304.402 304.268 292.502 308.417 286.829 310.63C281.156 312.843 271.056 317.545 264.276 320.864C257.634 324.184 247.119 330.131 240.892 334.142C234.528 338.014 223.458 345.621 216.263 351.015C209.069 356.408 197.584 366.09 190.804 372.59C184.025 379.09 173.786 390.016 167.974 396.793C162.301 403.57 153.308 415.741 148.05 423.762C142.792 431.784 134.213 446.997 129.094 457.647C123.836 468.296 117.333 483.51 114.566 491.531C111.798 499.553 107.786 513.245 105.572 521.958C103.497 530.671 100.868 542.565 100.037 548.236C99.2072 553.906 98.2387 560.13 97.8236 562.066C97.5469 564.002 96.5783 575.758 95.8865 588.344C94.9179 603.972 94.9179 617.664 95.8865 631.909C96.7167 643.389 98.2387 658.879 99.484 666.485C100.591 674.092 101.836 680.592 102.251 681.007C102.666 681.422 102.39 677.964 101.836 673.4C101.283 668.836 100.729 651.687 100.868 635.367C100.868 614.345 101.559 601.068 103.358 589.727C104.603 581.014 107.786 565.385 110.415 555.151C113.044 544.916 117.471 529.011 120.515 519.883C123.559 510.755 128.956 496.51 132.415 488.074C136.012 479.637 141.547 468.158 144.591 462.487C147.773 456.817 154 446.168 158.566 438.976C163.132 431.784 171.295 419.89 176.691 412.698C182.087 405.506 193.987 391.953 203.119 382.548C212.251 373.005 224.704 361.249 230.792 356.132C236.741 351.153 250.163 341.333 260.54 334.556C270.779 327.641 286.691 318.375 295.823 313.811C304.955 309.385 321.144 302.747 331.798 299.012C342.452 295.417 349.923 292.512 348.401 292.512C346.879 292.512 341.898 293.48 337.332 294.587C332.766 295.693 321.835 298.874 313.119 301.502ZM476.388 304.96C469.885 305.789 458.678 307.864 451.483 309.662C444.288 311.46 431.835 315.194 423.81 317.96C415.785 320.726 399.873 327.641 388.527 333.173C377.043 338.706 362.099 347.004 355.32 351.43C348.54 355.994 338.024 363.462 332.074 368.164C326.263 372.867 314.779 383.101 306.754 390.984C298.59 398.729 287.106 411.038 281.018 418.23C274.93 425.422 265.383 438.146 259.848 446.582C254.314 455.019 245.597 469.541 240.754 479.084C235.773 488.627 228.855 503.84 225.257 512.968C221.66 522.096 216.955 536.48 214.741 544.778C212.528 553.076 209.345 567.736 207.685 577.279C205.056 592.216 204.641 599.546 204.503 631.218C204.503 659.847 205.056 671.188 206.993 683.082C208.377 691.38 211.282 705.487 213.496 714.2C215.71 722.913 219.446 735.637 221.798 742.552C224.15 749.467 230.238 763.436 235.081 773.671C240.062 783.905 247.949 798.427 252.653 806.034C257.358 813.502 267.597 827.471 275.207 837.152C282.955 846.695 291.949 857.068 295.131 860.11C300.804 865.366 300.804 865.228 292.779 854.578C288.213 848.493 280.326 837.29 275.345 829.684C270.364 822.077 262.2 808.108 257.219 798.565C252.238 789.022 245.735 775.192 242.691 767.862C239.509 760.393 235.081 747.946 232.867 740.201C230.515 732.318 227.748 721.945 226.502 716.966C225.396 711.987 223.597 702.444 222.49 695.529C221.383 688.614 219.723 673.124 219.031 660.953C217.924 645.186 217.924 633.292 219.031 619.462C219.861 608.813 221.521 594.152 222.628 586.961C223.735 579.769 226.087 567.598 227.886 559.991C229.823 552.385 233.282 539.937 235.634 532.331C238.125 524.724 243.383 511.032 247.395 501.904C251.408 492.776 258.326 479.084 262.754 471.477C267.043 463.87 275.207 450.87 280.603 442.433C286.137 433.997 295.961 420.996 302.464 413.39C308.968 405.783 321.005 392.921 329.169 384.761C337.471 376.739 350.477 364.983 358.087 358.898C365.697 352.813 372.062 348.11 372.338 348.387C372.477 348.802 369.848 352.674 366.527 357.1C363.206 361.387 357.949 369.271 354.905 374.665C351.722 380.058 346.741 390.293 343.835 397.485C340.93 404.676 336.779 416.571 334.842 423.762C332.905 430.954 330.414 442.157 329.584 448.657C328.615 455.157 327.924 473.413 327.924 489.457C327.924 509.372 328.615 523.479 330.276 534.405C331.521 543.118 334.427 557.779 336.64 566.907C338.716 576.035 342.728 589.45 345.357 596.642C347.986 603.834 351.307 612.27 352.552 615.313C353.798 618.356 358.502 628.037 362.791 636.75C367.219 645.463 374.276 658.187 378.427 665.102C382.716 672.017 390.049 682.805 394.892 689.305C399.596 695.806 408.036 706.317 413.433 712.817C418.967 719.317 429.621 730.382 437.093 737.573C444.565 744.765 457.017 755.553 464.627 761.638C472.238 767.723 485.936 777.681 495.068 783.767C504.2 789.852 521.634 799.672 533.81 805.48C545.986 811.427 564.388 819.172 574.627 822.492C584.866 825.949 600.501 830.375 609.218 832.311C617.935 834.248 631.08 836.875 638.275 837.982C645.47 839.226 661.658 840.471 674.249 841.024C688.363 841.439 703.444 841.163 713.683 840.195C722.815 839.226 737.205 837.29 745.507 835.907C753.809 834.386 768.199 831.067 777.331 828.439C786.463 825.811 801.13 820.832 809.847 817.375C818.564 813.917 832.262 807.693 840.287 803.406C848.312 799.118 860.903 791.65 868.375 786.671C875.708 781.83 881.796 777.543 881.796 777.128C881.796 776.713 878.475 778.373 874.463 780.724C870.589 783.075 859.796 788.607 850.664 793.033C841.532 797.597 826.589 803.682 817.457 806.725C808.324 809.768 793.658 813.917 784.941 815.853C776.224 817.789 762.526 820.417 754.501 821.385C746.476 822.492 729.457 823.875 716.451 824.29C702.337 824.843 684.904 824.566 672.866 823.598C661.797 822.63 647.268 820.97 640.35 819.864C633.432 818.758 621.948 816.545 614.753 815.023C607.558 813.502 591.092 808.661 578.086 804.374C562.036 799.118 547.508 793.033 532.426 785.426C520.25 779.341 503.093 769.66 494.376 763.851C485.659 758.181 470.716 747.255 461.168 739.51C451.621 731.903 436.401 717.934 427.269 708.53C418.137 699.125 405.269 684.188 398.628 675.475C392.125 666.762 382.854 653.346 378.011 645.74C373.307 638.133 368.603 629.835 367.496 627.484C366.527 624.994 365.144 622.643 364.313 622.228C363.483 621.813 362.93 620.707 362.93 619.877C362.93 618.909 365.835 621.122 369.571 624.856C373.169 628.59 380.364 634.814 385.76 638.824C391.156 642.697 399.181 648.091 403.747 650.857C408.313 653.623 415.508 657.496 419.659 659.57C423.81 661.645 432.942 665.517 439.722 668.145C446.502 670.773 459.37 674.645 468.087 676.858C476.804 679.071 490.502 681.837 498.527 683.082C506.552 684.326 523.017 685.709 535.193 686.124C551.382 686.678 562.728 686.263 577.394 684.603C588.464 683.358 603.684 681.007 611.294 679.486C618.904 677.964 630.388 675.198 636.891 673.262C643.394 671.326 655.57 667.315 663.872 664.134C672.174 661.091 688.778 653.623 700.539 647.676C712.3 641.729 728.212 632.877 735.822 628.175C743.432 623.334 755.608 615.036 762.803 609.504C769.998 604.11 782.865 593.599 791.167 585.993C799.469 578.524 811.922 565.8 818.563 557.917C825.343 549.895 835.582 536.203 841.394 527.49C847.343 518.777 855.23 505.361 859.243 497.755C863.117 490.148 868.651 477.977 871.419 470.786C874.186 463.594 878.337 450.593 880.551 442.157C882.765 433.582 884.563 425.422 884.425 424.177C884.425 422.794 882.626 426.943 880.551 433.444C878.337 439.944 873.909 451.423 870.727 459.03C867.406 466.636 861.456 479.084 857.167 486.69C853.016 494.297 846.375 505.5 842.501 511.585C838.488 517.671 830.878 528.182 825.62 535.097C820.362 541.874 812.06 551.831 807.218 557.225C802.513 562.481 794.073 571.194 788.538 576.311C783.142 581.567 773.733 589.865 767.645 594.706C761.557 599.546 751.872 607.015 746.199 611.025C740.526 615.175 730.287 621.951 723.369 626.101C716.451 630.25 703.998 637.027 695.696 641.314C687.394 645.463 674.941 651.134 668.023 653.761C661.105 656.527 648.375 660.953 639.658 663.581C630.941 666.347 617.52 669.805 609.91 671.326C602.3 672.847 594.828 674.092 593.306 674.092C591.784 674.092 596.074 671.741 602.992 668.836C609.91 666.07 620.149 661.091 625.822 657.772C631.495 654.591 640.489 648.644 645.885 644.633C651.143 640.622 660.136 633.154 665.809 627.76C671.482 622.366 678.815 613.792 682.275 608.398C685.734 603.004 690.853 593.738 693.759 587.652C696.665 581.567 700.539 571.609 702.614 565.524C704.551 559.438 707.457 548.927 708.979 542.012C710.363 535.097 712.023 524.862 712.576 519.192C713.13 513.521 713.545 502.595 713.407 494.989C713.407 487.382 712.576 476.456 711.746 470.786C710.778 465.115 709.532 458.477 708.841 456.264C708.149 454.051 707.319 450.593 707.042 448.657C706.627 446.721 703.859 438.699 700.677 430.678C697.633 422.656 690.992 409.379 685.872 400.942C680.891 392.506 673.696 381.995 670.099 377.431C666.501 372.867 657.922 363.877 651.281 357.377C644.501 350.876 633.432 341.748 626.514 337.184C619.596 332.482 609.357 326.397 603.684 323.492C598.011 320.588 586.111 315.886 577.394 312.981C568.677 310.215 555.948 306.757 549.03 305.513C542.112 304.268 527.86 303.023 517.206 302.747C506.552 302.47 495.621 302.608 492.992 302.885C490.363 303.162 482.892 304.13 476.388 304.96ZM298.037 632.324C298.729 639.654 300.942 653.208 302.741 662.336C304.54 671.464 308.968 687.369 312.427 697.604C315.886 707.838 322.251 723.19 326.263 731.488C330.414 739.786 338.024 753.202 343.282 761.223C348.54 769.245 357.672 781.969 363.898 789.576C369.986 797.182 381.747 809.906 390.187 817.928C398.489 825.949 411.496 837.152 418.967 842.822C426.577 848.493 438.477 856.653 445.256 861.217C452.036 865.643 466.426 873.526 477.08 878.781C487.734 883.899 502.401 890.399 509.596 893.027C516.791 895.793 529.935 900.08 538.652 902.708C547.369 905.474 561.067 908.932 569.093 910.591C577.118 912.251 590.124 914.464 598.149 915.57C606.174 916.538 621.671 917.783 632.74 918.336C643.809 918.889 657.784 918.751 663.872 918.06L674.941 916.953C644.916 915.432 626.791 913.634 615.445 911.974C603.96 910.315 585.281 906.58 573.935 903.676C562.451 900.772 544.74 895.378 534.501 891.505C524.263 887.771 508.904 881.271 500.602 877.122C492.162 872.973 481.093 867.164 475.697 864.259C470.3 861.355 459.785 854.717 452.175 849.738C444.565 844.62 432.112 835.492 424.502 829.407C416.892 823.322 403.055 810.598 393.785 801.193C384.515 791.788 372.062 778.096 366.389 770.904C360.577 763.713 353.106 753.755 349.785 748.776C346.603 743.797 340.653 734.254 336.779 727.339C332.905 720.424 326.817 708.391 323.357 700.37C319.76 692.348 314.225 677.411 310.766 667.177C307.446 656.942 303.156 641.037 301.358 631.909C299.559 622.781 297.76 613.792 297.483 611.855C297.068 609.504 296.792 610.057 296.653 613.653C296.653 616.419 297.207 624.856 298.037 632.324Z" fill="#00C076"/>
</svg>
